{
  "accessors": [
    {
      "name": "Node-Mesh_0_positions",
      "componentType": 5126,
      "count": 8,
      "min": [
        0.03471999987959862,
        0.0414000004529953,
        1.9870000755872752e-8
      ],
      "max": [
        4.965000152587891,
        12.960000038146973,
        1.9870000755872752e-8
      ],
      "type": "VEC3",
      "bufferView": 0,
      "byteOffset": 0
    },
    {
      "name": "Node-Mesh_0_indices",
      "componentType": 5123,
      "count": 12,
      "min": [
        0
      ],
      "max": [
        7
      ],
      "type": "SCALAR",
      "bufferView": 1,
      "byteOffset": 0
    },
    {
      "name": "Node-Mesh_1_positions",
      "componentType": 5126,
      "count": 4,
      "min": [
        0.03471999987959862,
        7.328000068664551,
        1.9870000755872752e-8
      ],
      "max": [
        4.965000152587891,
        10.100000381469727,
        1.9870000755872752e-8
      ],
      "type": "VEC3",
      "bufferView": 0,
      "byteOffset": 96
    },
    {
      "name": "Node-Mesh_1_indices",
      "componentType": 5123,
      "count": 6,
      "min": [
        0
      ],
      "max": [
        3
      ],
      "type": "SCALAR",
      "bufferView": 1,
      "byteOffset": 24
    },
    {
      "name": "Node-Mesh_2_positions",
      "componentType": 5126,
      "count": 2582,
      "min": [
        -1.5059999688288306e-12,
        -0.000004737999915960245,
        -0.541700005531311
      ],
      "max": [
        5,
        13,
        1.9870000755872752e-8
      ],
      "type": "VEC3",
      "bufferView": 0,
      "byteOffset": 144
    },
    {
      "name": "Node-Mesh_2_indices",
      "componentType": 5123,
      "count": 8292,
      "min": [
        0
      ],
      "max": [
        2581
      ],
      "type": "SCALAR",
      "bufferView": 1,
      "byteOffset": 36
    }
  ],
  "asset": {
    "generator": "obj2gltf",
    "version": "2.0"
  },
  "buffers": [
    {
      "name": "Intermediate",
      "byteLength": 47748,
      "uri": "data:application/octet-stream;base64,"
    }
  ],
  "bufferViews": [
    {
      "name": "bufferView_0",
      "buffer": 0,
      "byteLength": 31128,
      "byteOffset": 0,
      "byteStride": 12,
      "target": 34962
    },
    {
      "name": "bufferView_1",
      "buffer": 0,
      "byteLength": 16620,
      "byteOffset": 31128,
      "target": 34963
    }
  ],
  "materials": [
    {
      "name": "GLASS_VISION",
      "pbrMetallicRoughness": {
        "baseColorFactor": [
          0.5,
          0.5,
          0.5,
          1
        ],
        "metallicFactor": 0,
        "roughnessFactor": 1
      },
      "emissiveFactor": [
        0,
        0,
        0
      ],
      "alphaMode": "OPAQUE",
      "doubleSided": false
    },
    {
      "name": "GLASS_SPANDREL",
      "pbrMetallicRoughness": {
        "baseColorFactor": [
          0.5,
          0.5,
          0.5,
          1
        ],
        "metallicFactor": 0,
        "roughnessFactor": 1
      },
      "emissiveFactor": [
        0,
        0,
        0
      ],
      "alphaMode": "OPAQUE",
      "doubleSided": false
    },
    {
      "name": "Mullion",
      "pbrMetallicRoughness": {
        "baseColorFactor": [
          0.5,
          0.5,
          0.5,
          1
        ],
        "metallicFactor": 0,
        "roughnessFactor": 1
      },
      "emissiveFactor": [
        0,
        0,
        0
      ],
      "alphaMode": "OPAQUE",
      "doubleSided": false
    }
  ],
  "meshes": [
    {
      "name": "Node-Mesh",
      "primitives": [
        {
          "attributes": {
            "POSITION": 0
          },
          "indices": 1,
          "material": 0,
          "mode": 4
        },
        {
          "attributes": {
            "POSITION": 2
          },
          "indices": 3,
          "material": 1,
          "mode": 4
        },
        {
          "attributes": {
            "POSITION": 4
          },
          "indices": 5,
          "material": 2,
          "mode": 4
        }
      ]
    }
  ],
  "nodes": [
    {
      "name": "Node",
      "mesh": 0
    }
  ],
  "scene": 0,
  "scenes": [
    {
      "nodes": [
        0
      ]
    }
  ]
}
